<svg xmlns="http://www.w3.org/2000/svg" xmlns:xlink="http://www.w3.org/1999/xlink" width="295" height="46" viewBox="0 0 295 46">
    <defs>
        <circle id="b" cx="20" cy="20" r="20"/>
        <filter id="a" width="115%" height="115%" x="-7.5%" y="-7.5%" filterUnits="objectBoundingBox">
            <feOffset in="SourceAlpha" result="shadowOffsetOuter1"/>
            <feGaussianBlur in="shadowOffsetOuter1" result="shadowBlurOuter1" stdDeviation="1"/>
            <feColorMatrix in="shadowBlurOuter1" values="0 0 0 0 0 0 0 0 0 0 0 0 0 0 0 0 0 0 0.1 0"/>
        </filter>
        <radialGradient id="c" cy="54.652%" r="71.505%" fx="50%" fy="54.652%" gradientTransform="matrix(.9267 0 0 1 .037 0)">
            <stop offset="0%" stop-color="#FFB900"/>
            <stop offset="60%" stop-color="#F95D8F"/>
            <stop offset="99.91%" stop-color="#F95353"/>
        </radialGradient>
        <circle id="e" cx="20" cy="20" r="20"/>
        <filter id="d" width="127.5%" height="127.5%" x="-8.8%" y="-13.8%" filterUnits="objectBoundingBox">
            <feOffset dx="2" in="SourceAlpha" result="shadowOffsetOuter1"/>
            <feGaussianBlur in="shadowOffsetOuter1" result="shadowBlurOuter1" stdDeviation="1.5"/>
            <feColorMatrix in="shadowBlurOuter1" values="0 0 0 0 0 0 0 0 0 0 0 0 0 0 0 0 0 0 0.1 0"/>
        </filter>
        <circle id="g" cx="20" cy="20" r="20"/>
        <filter id="f" width="127.5%" height="127.5%" x="-8.8%" y="-13.8%" filterUnits="objectBoundingBox">
            <feOffset dx="2" in="SourceAlpha" result="shadowOffsetOuter1"/>
            <feGaussianBlur in="shadowOffsetOuter1" result="shadowBlurOuter1" stdDeviation="1.5"/>
            <feColorMatrix in="shadowBlurOuter1" values="0 0 0 0 0 0 0 0 0 0 0 0 0 0 0 0 0 0 0.1 0"/>
        </filter>
        <circle id="i" cx="20" cy="20" r="20"/>
        <filter id="h" width="128.8%" height="128.8%" x="-9.4%" y="-14.4%" filterUnits="objectBoundingBox">
            <feMorphology in="SourceAlpha" operator="dilate" radius=".25" result="shadowSpreadOuter1"/>
            <feOffset dx="2" in="shadowSpreadOuter1" result="shadowOffsetOuter1"/>
            <feGaussianBlur in="shadowOffsetOuter1" result="shadowBlurOuter1" stdDeviation="1.5"/>
            <feComposite in="shadowBlurOuter1" in2="SourceAlpha" operator="out" result="shadowBlurOuter1"/>
            <feColorMatrix in="shadowBlurOuter1" values="0 0 0 0 0 0 0 0 0 0 0 0 0 0 0 0 0 0 0.0885133605 0"/>
        </filter>
        <circle id="k" cx="20" cy="20" r="20"/>
        <filter id="j" width="128.8%" height="128.8%" x="-9.4%" y="-14.4%" filterUnits="objectBoundingBox">
            <feMorphology in="SourceAlpha" operator="dilate" radius=".25" result="shadowSpreadOuter1"/>
            <feOffset dx="2" in="shadowSpreadOuter1" result="shadowOffsetOuter1"/>
            <feGaussianBlur in="shadowOffsetOuter1" result="shadowBlurOuter1" stdDeviation="1.5"/>
            <feComposite in="shadowBlurOuter1" in2="SourceAlpha" operator="out" result="shadowBlurOuter1"/>
            <feColorMatrix in="shadowBlurOuter1" values="0 0 0 0 0 0 0 0 0 0 0 0 0 0 0 0 0 0 0.1 0"/>
        </filter>
        <circle id="m" cx="20" cy="20" r="20"/>
        <filter id="l" width="121.2%" height="121.2%" x="-5.6%" y="-10.6%" filterUnits="objectBoundingBox">
            <feMorphology in="SourceAlpha" operator="dilate" radius=".25" result="shadowSpreadOuter1"/>
            <feOffset dx="2" in="shadowSpreadOuter1" result="shadowOffsetOuter1"/>
            <feGaussianBlur in="shadowOffsetOuter1" result="shadowBlurOuter1" stdDeviation="1"/>
            <feComposite in="shadowBlurOuter1" in2="SourceAlpha" operator="out" result="shadowBlurOuter1"/>
            <feColorMatrix in="shadowBlurOuter1" values="0 0 0 0 0 0 0 0 0 0 0 0 0 0 0 0 0 0 0.1 0"/>
        </filter>
    </defs>
    <g fill="none" fill-rule="evenodd">
        <path fill="#D7D9DE" d="M93 16l-7-6v5h-8a.998.998 0 0 0-.759.349L71.54 22H61v2h10.54l5.701 6.651c.19.222.467.349.759.349h8v5l7-6-7-6v5h-7.54l-5.143-6 5.143-6H86v5l7-6z"/>
        <g transform="translate(253 3)">
            <use fill="#000" filter="url(#a)" xlink:href="#b"/>
            <use fill="#FFF" xlink:href="#b"/>
        </g>
        <path fill="url(#c)" fill-rule="nonzero" d="M16.786 10.524a4.671 4.671 0 0 0-4.665 4.677 4.671 4.671 0 0 0 4.665 4.678 4.671 4.671 0 0 0 4.665-4.678 4.671 4.671 0 0 0-4.665-4.677zm-12.12 0A4.671 4.671 0 0 0 0 15.201a4.671 4.671 0 0 0 4.665 4.678A4.671 4.671 0 0 0 9.331 15.2a4.671 4.671 0 0 0-4.666-4.677zM15.39 4.677a4.671 4.671 0 0 1-4.665 4.678A4.672 4.672 0 0 1 6.06 4.677 4.671 4.671 0 0 1 10.726 0a4.671 4.671 0 0 1 4.665 4.677z" transform="translate(262.5 13)"/>
        <g transform="translate(218 3)">
            <use fill="#000" filter="url(#d)" xlink:href="#e"/>
            <use fill="#FFF" xlink:href="#e"/>
        </g>
        <path fill="#23A566" d="M246.5 33.11c0 .73-.576 1.322-1.287 1.322h-13.426c-.71 0-1.287-.592-1.287-1.321V12.895c0-.73.576-1.322 1.287-1.322h8.633l6.08 6.395v15.143"/>
        <path fill="#1C8F5A" d="M241.09 17.806l5.41 5.307-.016-5.153H241.695c-.217 0-.422-.056-.602-.154h-.003"/>
        <path fill="#8ED1B1" d="M246.5 17.96h-4.804c-.71 0-1.287-.592-1.287-1.322v-5.07l6.091 6.392"/>
        <path fill="#FFF" d="M234.34 30.204h8.32v-7.4h-8.32v7.4zm4.675-5.021h2.616v-1.321h-2.616v1.321zm0 2.026h2.616v-1.233h-2.616v1.233zm0 1.938h2.616v-1.145h-2.616v1.145zm-3.646 0h2.616v-1.145h-2.616v1.145zm0-1.938h2.616v-1.233h-2.616v1.233zm0-2.026h2.616v-1.321h-2.616v1.321z"/>
        <g>
            <g transform="translate(183 3)">
                <use fill="#000" filter="url(#f)" xlink:href="#g"/>
                <use fill="#FFF" xlink:href="#g"/>
            </g>
            <g fill-rule="nonzero" transform="translate(193.5 13.5)">
                <rect width="19.5" height="19.5" fill="#0079BF" rx="2.438"/>
                <rect width="5.947" height="8.531" x="11.018" y="2.535" fill="#FFF" rx="1.17"/>
                <rect width="5.947" height="13.406" x="2.535" y="2.535" fill="#FFF" rx="1.17"/>
            </g>
        </g>
        <g>
            <g transform="translate(148 3)">
                <use fill="#000" filter="url(#h)" xlink:href="#i"/>
                <use fill="#FFF" stroke="#FFF" stroke-width=".5" xlink:href="#i"/>
            </g>
            <path fill="#ECB32D" d="M171.328 13.015a2.05 2.05 0 0 0-2.561-1.31 2.05 2.05 0 0 0-1.31 2.562l5.255 16.157a2.028 2.028 0 0 0 2.468 1.252c1.085-.317 1.74-1.458 1.384-2.505 0-.038-5.236-16.156-5.236-16.156z"/>
            <path fill="#63C1A0" d="M163.194 15.651a2.05 2.05 0 0 0-2.561-1.309 2.05 2.05 0 0 0-1.31 2.562l5.255 16.156a2.028 2.028 0 0 0 2.468 1.253c1.085-.318 1.74-1.459 1.384-2.506 0-.037-5.236-16.156-5.236-16.156z"/>
            <path fill="#E01A59" d="M177.948 26.385a2.05 2.05 0 0 0 1.309-2.562 2.05 2.05 0 0 0-2.562-1.31l-16.175 5.274a2.028 2.028 0 0 0-1.253 2.468c.318 1.085 1.459 1.74 2.506 1.384.038 0 16.175-5.254 16.175-5.254z"/>
            <path fill="#331433" d="M163.886 30.966c1.047-.337 2.412-.786 3.87-1.253-.336-1.047-.784-2.412-1.252-3.87l-3.87 1.252 1.252 3.87z"/>
            <path fill="#D62027" d="M172.039 28.31c1.459-.467 2.824-.916 3.87-1.252-.336-1.047-.785-2.412-1.252-3.871l-3.87 1.253 1.252 3.87z"/>
            <path fill="#89D3DF" d="M175.293 18.25a2.05 2.05 0 0 0 1.309-2.561 2.05 2.05 0 0 0-2.562-1.31l-16.156 5.255a2.028 2.028 0 0 0-1.253 2.468c.318 1.085 1.458 1.74 2.506 1.384.037 0 16.156-5.236 16.156-5.236z"/>
            <path fill="#258B74" d="M161.25 22.813c1.047-.337 2.412-.785 3.87-1.253-.467-1.458-.916-2.823-1.253-3.87l-3.87 1.252 1.253 3.871z"/>
            <path fill="#819C3C" d="M169.384 20.176c1.458-.467 2.823-.916 3.87-1.252-.467-1.459-.916-2.824-1.252-3.871l-3.871 1.253 1.253 3.87z"/>
        </g>
        <g>
            <g transform="translate(113 3)">
                <use fill="#000" filter="url(#j)" xlink:href="#k"/>
                <use fill="#FFF" stroke="#FFF" stroke-width=".5" xlink:href="#k"/>
            </g>
            <path fill="#664F44" fill-rule="nonzero" d="M143.398 26.603c-.009-.037-.018-.073-.018-.11-.01-.019-.01-.046-.018-.065-.019-.046-.037-.1-.056-.147a.861.861 0 0 0-.194-.257.73.73 0 0 0-.267-.157.733.733 0 0 0-.268-.055h-.064c.046-.45-.12-.773-.222-.92.01-.01.01-.018.019-.018.092-.12.175-.23.24-.34l.009-.02a.967.967 0 0 0 .101-.284c.01-.074.019-.148.019-.203v-.092c0-.027-.01-.055-.01-.083a1.239 1.239 0 0 0-.184-.487 1.186 1.186 0 0 0-.554-.46c-.009 0-.018-.01-.027-.01-.286-.33-.6-.57-.877-.754-.138-.092-.277-.165-.388-.23-.11-.064-.203-.11-.258-.138a2.528 2.528 0 0 0-.249-.12c-.092-.045-.166-.073-.212-.1-.037-.019-.056-.037-.056-.037s-.009-.01-.009-.028a.787.787 0 0 1-.028-.12 3.231 3.231 0 0 1-.036-.414c-.019-.294-.037-.69-.074-1.232a3.934 3.934 0 0 0-.056-.488 3.21 3.21 0 0 0-.23-.782c-.019-.028-.028-.055-.037-.074-.019-.027-.028-.055-.046-.082a.15.15 0 0 1-.028-.056 1.569 1.569 0 0 1-.083-.128l-.01-.01-.018-.018-.009-.018c-.055-.074-.12-.138-.185-.203-.046-.12-.11-.294-.221-.497a3.027 3.027 0 0 0-.37-.552 1.74 1.74 0 0 0-.184-.184l.019-.018c.027-.028.581-.782.978-1.72.738-1.748.304-2.705-.194-3.202l-.018-.018-.019-.01c-.48-.46-1.08-.662-1.78-.662-1.459 0-3 .91-3.406 1.16l-.885-.755a1.52 1.52 0 0 0-.25-.175c-.092-.046-.184-.092-.286-.12a1.991 1.991 0 0 0-.627-.092c-.443 0-.923.11-1.44.313-.765.304-1.605.81-2.473 1.481-.867.672-1.744 1.518-2.583 2.494-1.024 1.196-1.837 2.42-2.4 3.56-.276.57-.498 1.113-.645 1.628-.148.506-.231.985-.231 1.417 0 .313.046.607.138.865.047.11.093.22.157.322.083.129.185.248.296.35l.922.745.102.083v.009c-.01.018-.019.037-.019.055l-.027.083c-.01.018-.01.037-.019.055l-.027.083c-.01.018-.01.037-.019.055l-.028.083c-.009.018-.009.037-.018.055-.01.028-.01.055-.019.092 0 .018-.009.037-.009.055-.009.028-.009.065-.018.092v.028c0 .009 0 .018-.01.037 0 .027-.009.064-.009.092 0 .018-.009.036-.009.055v.386c0 .037 0 .083.01.12v.101c0 .028.009.055.009.083 0 .018 0 .037.009.055v.028c0 .018.009.036.009.055 0 .018.01.037.01.055 0 .018.008.028.008.046 0 .01.01.018.01.028 0 .018.009.036.009.055 0 .018.01.046.018.073 0 .01 0 .019.01.028.009.018.009.046.018.064.01.019.01.037.019.065 0 .009.009.018.009.027 0 .01.009.028.009.037l.01.019c.008.018.008.036.027.064 0 .01.01.01.01.018.008.019.008.037.018.046l.009.019c0 .009.009.009.009.018l.01.019.008.018.01.01c0 .008.009.008.009.018l.01.018c.008.018.008.028.018.037.009.018.018.037.027.064v.01c0 .009.01.009.01.018a.15.15 0 0 0 .027.055c.01.018.019.037.037.064l.01.01c.009.018.018.027.027.046l.01.009c0 .009.008.018.018.027.009.01.009.019.018.037l.01.01a.07.07 0 0 1 .018.036c.01.01.01.019.018.028.01.018.019.037.037.055l.01.01c.009.008.009.018.018.027.01.009.018.018.018.027.01.01.019.028.037.056l.01.009c.009.009.009.018.018.027.01.01.018.028.028.037.009.01.018.028.037.046l.009.01.027.027c.01.01.019.028.028.037.01.009.019.027.037.046l.028.027.037.037.037.037.027.028.037.036.028.028.01.01c.018.018.036.027.054.045l.019.019.028.027a.244.244 0 0 0 .055.046c.01.01.018.01.028.019 0 0 .009.009.027.018l.01.01c.027.018.046.036.073.054h.01c.009 0 .018.01.027.019.028.018.065.046.093.064l.018.01.01.009.018.009c.027.018.055.027.073.046h.01c.009.009.018.009.018.009h.01c.009 0 .018.01.018.01.018.008.046.027.064.036l.019.01.018.008.01.01c.018.009.046.018.064.036.01.01.019.01.037.019l.019.009.009.01h.009c.037.018.065.027.101.045l.019.01c.046.018.083.027.12.045h.01l.018.01c.018.009.036.009.055.018.01 0 .018.01.028.01.009 0 .027.008.037.008h.018c.018.01.037.01.055.019h.01c.018.009.046.009.064.018h.028c.01 0 .018 0 .028.01h.009c.027.009.064.009.092.018h.01c.045.009.092.018.138.018h.009c.046.01.083.01.12.01h.037c.037 0 .074.009.12.009h.11c.01.009.01.018.01.027.083.166.175.322.267.488 1.458 2.852 4.743 4.802 8.213 4.802 3.47 0 6.837-2.714 7.935-5.961.046-.13.093-.249.13-.368.129-.166.221-.34.276-.516.074-.138.083-.35.046-.515zm-1.411 5.447a.376.376 0 0 1-.277.11.376.376 0 0 1-.388-.386c0-.11.037-.212.12-.286a.362.362 0 0 1 .268-.1.376.376 0 0 1 .387.386.315.315 0 0 1-.11.276zm-.499-.506a.299.299 0 0 0-.092.22c0 .092.028.166.092.23a.307.307 0 0 0 .231.092.307.307 0 0 0 .23-.092.305.305 0 0 0 .093-.23.285.285 0 0 0-.092-.22.315.315 0 0 0-.23-.102.355.355 0 0 0-.232.102zm.351.423a.178.178 0 0 1-.11.037.221.221 0 0 1-.221-.23c-.001-.065.017-.12.054-.166.037-.046.093-.064.157-.064.037 0 .074.009.11.027a.19.19 0 0 1 .093.147h-.101c-.01-.027-.019-.055-.037-.064a.131.131 0 0 0-.056-.018.084.084 0 0 0-.073.036.196.196 0 0 0-.028.11c0 .047.01.084.028.102.018.018.046.037.073.037.028 0 .046-.01.065-.019l.028-.055h.092a.18.18 0 0 1-.074.12z"/>
            <path fill="#FCE9CD" fill-rule="nonzero" d="M142.863 26.732s0-.138-.083-.258l-.018-.018-.01-.01-.027-.027c-.019-.018-.046-.027-.074-.046-.018-.009-.028-.009-.046-.018a.399.399 0 0 0-.157-.028c-.046 0-.092 0-.148.01-.018 0-.046.009-.064.009h-.01s0 .009.01.018c0 .01.01.018.018.037 0 .009.01.009.01.018.009.028.027.065.036.11 0 0 0 .01-.009.028v.01c-.018.064-.074.22-.212.432-.028.037-.046.073-.083.11-.397.525-1.31 1.325-3.35 1.96a7.59 7.59 0 0 1-1.91.276c-.84 0-1.485-.184-1.818-.506l-.083-.083c-.018-.018-.037-.046-.055-.064-.01-.01-.01-.019-.018-.028a1.406 1.406 0 0 1-.259-.662 1.314 1.314 0 0 1 .148-.782.903.903 0 0 1 .424-.405c.093-.037.185-.065.286-.074h.406a9.68 9.68 0 0 0 1.772-.156c1.356-.258 3.11-.911 4.568-2.585v-.01a.752.752 0 0 0-.231-.496.332.332 0 0 0-.11-.074c-.02-.01-.047-.028-.075-.037l-.073-.027c-.028-.019-.065-.028-.083-.046v-.01c-.01-.018-.028-.027-.037-.046-.508-.588-1.135-.892-1.394-1.03-.12-.064-.193-.092-.193-.092-.545-.248-.628-.34-.693-1.178-.018-.303-.036-.699-.073-1.242 0-.073-.01-.138-.019-.202 0-.018 0-.028-.009-.046l-.028-.175v-.037a2.985 2.985 0 0 0-.027-.128c0-.019-.01-.037-.01-.056a.526.526 0 0 0-.037-.128c-.009-.019-.009-.046-.018-.065-.01-.027-.018-.046-.028-.064-.009-.019-.018-.046-.027-.065-.01-.027-.019-.046-.028-.073 0-.01-.01-.019-.01-.028 0-.009-.009-.018-.009-.027v-.01l-.009-.027-.027-.055v-.01l-.01-.018-.009-.018a.33.33 0 0 0-.064-.092l-.019-.019c-.028-.027-.046-.055-.074-.083l-.009-.009-.01-.009c-.018-.018-.036-.037-.045-.055l-.019-.019c-.018-.018-.046-.036-.064-.055-.028-.018-.056-.046-.083-.064a.277.277 0 0 0-.093-.037c-.009 0-.018-.01-.027-.01-.019-.008-.037-.008-.056-.018-.009 0-.018 0-.037-.009-.018 0-.037-.009-.055-.009h-.194c-.018 0-.027.01-.046.01-.01 0-.018 0-.028.008l-.018.01c-.01 0-.019.009-.028.009-.009 0-.018.009-.027.009-.019.01-.037.018-.056.018l-.018.01a1.103 1.103 0 0 0-.148.073l-.018.01c-.019.009-.037.027-.056.036l-.018.019c-.019.009-.037.027-.056.036l-.018.019a.201.201 0 0 0-.046.037l-.019.018c-.018.018-.036.028-.055.046l-.018.018a.244.244 0 0 1-.056.046l-.009.01c-.018.018-.046.036-.065.055-.036.037-.083.073-.12.11a1.01 1.01 0 0 0-.101.092l-.019.019c-.036.027-.073.064-.11.092l-.019.018-.11.083-.019.018c-.037.028-.074.055-.12.083l-.018.01c-.037.027-.083.045-.12.073l-.019.009c-.046.018-.083.046-.129.064h-.01a.693.693 0 0 1-.147.046c-.083.019-.166.037-.249.046-.138.019-.277.028-.424.019-.046 0-.093 0-.148-.01h-.055c-.13-.009-.25-.018-.379-.036-.055-.01-.11-.01-.157-.019l-.258-.027c-.018 0-.037 0-.055-.01h-.037c-.019 0-.037 0-.056-.009h-.12c-.036 0-.083 0-.12-.009h-.405c-.028 0-.056.01-.084.01h-.046c-.037 0-.064.009-.101.018h-.028l-.12.027c-.009 0-.018.01-.037.01-.027.009-.055.009-.083.018h-.009c-.018 0-.028.01-.046.01l-.083.027c-.019.009-.028.009-.046.018a.328.328 0 0 0-.083.037c-.019.01-.028.01-.046.018-.028.01-.056.028-.084.037-.009.01-.027.01-.036.019-.047.018-.084.046-.13.073-.323.24-.59.552-.784.902-.065.12-.12.239-.175.359a2.198 2.198 0 0 0-.13.395l-.027.12c-.019.064-.028.138-.037.202v.019c-.01.073-.019.156-.028.23-.009.082-.009.165-.009.239v.129c.01.12.018.23.046.35 0 .008 0 .018.01.027.009.027.009.055.018.092.018.083.037.165.064.239.01.028.019.055.037.083l.028.083c.083.202.194.377.314.542.461.608 1.135.92 1.605 1.068.185.055.379.1.572.138l-.018.018c-.037.01-.074.028-.11.046-.065.028-.14.055-.222.101-.092.046-.194.092-.295.157a3.57 3.57 0 0 0-.85.644c-.036.036-.064.073-.1.1a2.689 2.689 0 0 0-.149.194c-.009.01-.009.018-.018.018-.01.01-.018.019-.018.028l-.056.083c-.01.009-.01.018-.018.037-.019.036-.046.073-.065.12-.018.036-.037.082-.055.119-.139.322-.194.699-.102 1.131V27.385c0-.009 0-.027.01-.046 0-.018.009-.037.009-.046v-.009c0-.018.009-.037.009-.055v-.01a.13.13 0 0 1 .018-.055v-.009c.01-.018.01-.046.019-.064v-.019c.01-.018.018-.046.028-.073a.562.562 0 0 1 .046-.11c.009-.01.009-.028.018-.037l.01-.01c.018-.027.027-.055.045-.082.01-.028.028-.046.047-.074.009-.01.009-.018.018-.018.01-.019.028-.037.037-.056.01-.009.01-.018.018-.018a.4.4 0 0 1 .056-.064s-.286.938-.028 1.628v-.34c0-.028 0-.056.01-.074v-.01c0-.027.009-.054.009-.082 0-.01 0-.018.009-.028v-.018c.009-.018.009-.046.018-.064.01-.028.019-.065.028-.092 0-.01.01-.019.01-.028a.373.373 0 0 1 .045-.083s0 .221.046.488c.01.037.01.083.019.129.01.027.01.055.018.082.01.184.037.368.083.562.074.322.194.653.37.993 0 0-.176-.395-.047-.828.019.037.047.074.065.11.028.12.074.295.138.479.074.313.351 1.251 1.08 1.84 0 0-.286-.285-.295-.708.037.055.064.1.092.138.138.193.406.552.683.79 0 0-.24-.349-.212-.44 0 0 .738.717.95.763l-.323-.405-.01-.01c1.016.562 2.317.645 3.84.02.258-.111.525-.24.802-.396.166-.102.332-.203.499-.322l.027-.019c.11-.083.222-.165.332-.257.083-.065.166-.138.25-.212.138-.12.267-.248.396-.386.01-.01.019-.019.019-.028.129-.138.24-.285.35-.423.139-.193.268-.377.379-.57l.009-.01c.028-.046.055-.092.074-.138l.009-.009.028-.046c.037-.064.074-.129.101-.202.01-.019.019-.028.019-.046.018-.037.027-.074.046-.102.009-.027.027-.055.037-.082.009-.028.027-.056.037-.083.018-.055.046-.101.064-.157.01-.018.019-.036.019-.064.018-.037.027-.083.046-.12.009-.018.009-.036.018-.055l.01-.018a.902.902 0 0 0 .046-.147v-.01c.073-.082.12-.165.166-.239.009-.009.009-.018.018-.027.037-.166.056-.313.046-.442m-15.105-.497c-.028.01-.055.055-.074.101-.01.019-.018.046-.028.065-.064.165-.11.395-.11.395 0-.073 0-.147-.01-.23V26.272c0-.092.01-.175.01-.258v-.119c0-.065.009-.129.009-.193 0-.056.01-.11.01-.157v-.23c0-.018 0-.037.008-.046v-.11l-.018.018c-.01.019-.028.028-.037.046l-.01.019c-.018.018-.027.046-.036.064l-.01.01c-.018.027-.027.054-.045.082l-.01.01c0 .008-.009.018-.009.018a.13.13 0 0 0-.018.055v.018l-.028.083c-.019.083-.037.156-.046.212 0 .018-.01.046-.01.064-.009.037-.009.074-.009.083v.009V25.867c0-.046-.009-.101-.009-.147v-.451c0-.027.01-.064.01-.092v-.009c0-.018 0-.046.009-.064v-.01c.009-.046.009-.092.018-.138v-.046a1.88 1.88 0 0 1 .046-.22v-.01c.01-.064.028-.12.046-.184v-.009a.284.284 0 0 0 .019-.073c.009-.037.018-.074.027-.12v-.01c0-.008.01-.036.019-.064 0-.009.01-.027.01-.036.008-.019.008-.046.018-.065l.009-.018c-.01-.01-.028-.01-.046-.019h-.01l-.018-.009c-.092-.027-.185-.055-.277-.064h-.018c-.065-.01-.12-.01-.185-.01-.037 0-.074 0-.11.01-.028 0-.065.009-.093.009l-.138.028c-.019 0-.028.009-.037.009-.019.009-.046.009-.065.018-.009 0-.018.01-.027.01-.019.009-.028.009-.047.018-.027.009-.055.027-.083.037-.009.009-.027.009-.037.018-.036.018-.073.037-.11.064-.019.01-.028.019-.037.028-.019.01-.037.018-.046.037l-.019.009c-.018.01-.037.028-.055.037-.019.009-.028.027-.046.037-.019.018-.037.027-.056.046l-.027.027a.83.83 0 0 0-.083.092c-.01.019-.028.028-.037.046-.019.028-.046.055-.065.083l-.01.018a.201.201 0 0 1-.027.046c-.009.01-.009.019-.018.037a2.35 2.35 0 0 0-.102.221c0 .01-.009.018-.009.037l-.028.11c0 .019-.009.028-.009.046a.537.537 0 0 0-.018.12v.037c0 .027-.01.055-.01.092v.128c0 .046.01.092.01.138.009.037.009.074.018.11v.02c0 .018.01.036.019.054.018.074.046.138.073.203.019.046.047.101.074.147.046.083.11.166.166.24a1.453 1.453 0 0 0 .812.478c.111.027.222.036.342.036h.083c.037 0 .083-.009.12-.009a.464.464 0 0 1 .11-.018c.019 0 .037-.01.065-.01.055-.009.102-.027.148-.045h.009l.055-.028c.065-.028.12-.055.176-.092l.009-.01c.018-.008.028-.018.046-.027-.046-.156-.092-.313-.13-.478.056 0 .047-.019.047-.028"/>
            <path fill="#E9B784" fill-rule="nonzero" d="M134.743 20.163a.976.976 0 0 0-.221-.055c-.046-.01-.102-.01-.148-.01h-.055c-.25.01-.452.074-.452.074-.047.019-.084.037-.13.056a1.41 1.41 0 0 0-.664.56c-.11.176-.175.369-.203.544 0 .018-.01.027-.01.046-.008.046-.008.092-.018.138-.009.147-.009.285 0 .386.01.147.037.24.037.24.046-.13.092-.258.139-.369.12-.285.258-.524.406-.717.286-.378.6-.598.849-.727.276-.138.47-.166.47-.166m3.903-.957l-.009-.009a.563.563 0 0 0-.148-.11c-.138-.074-.313-.092-.553-.019 0 0-.277.102-.425.313 0 0 .471-.276 1.043.037.055.028.102.064.157.101a1.1 1.1 0 0 1 .166.138s-.046-.23-.203-.405c-.01-.027-.018-.036-.028-.046m-4.632 3.303c.019-.018.037-.037.056-.046.009-.009.018-.018.027-.018.019-.019.037-.028.056-.046.009-.01.018-.019.036-.028.019-.009.037-.027.056-.037.01-.009.028-.018.037-.027.018-.01.037-.028.055-.037.019-.01.028-.018.046-.028.019-.009.037-.018.065-.027l.055-.028c.019-.009.046-.018.065-.027a.171.171 0 0 1 .064-.019c.019-.009.037-.018.065-.018h.01a.274.274 0 0 1 .091-.019c.01 0 .019 0 .028-.009.019 0 .037-.009.056-.009h.027c.019 0 .037 0 .056-.01h.101a.45.45 0 0 1 .11.01h.02c.036 0 .064.01.1.018h.02c.036.01.064.01.092.019h.009c.027.009.064.018.092.027.037.01.065.028.092.037.028.01.056.028.083.046-.046-.165-.184-.524-.572-.616-.055-.01-.11-.019-.175-.019h-.046c-.056 0-.12.01-.185.028-.729.156-.766.764-.756.966.018-.018.036-.046.055-.064l.01-.019"/>
            <path fill="#FFF" d="M142.245 26.428c0-.009-.01-.018-.01-.018-.008-.018-.008-.028-.018-.037a1.839 1.839 0 0 0-.193-.322.783.783 0 0 0-.139-.138c.01-.037.01-.073.01-.11 0-.046.009-.092.009-.138 0-.34-.12-.58-.213-.718-.018-.018-.027-.037-.036-.055-.047.046-.093.083-.139.129a8.1 8.1 0 0 1-3.137 1.683c-.812.23-1.68.35-2.602.35h.018s-.535.138-.618.68h.01v.36c.073.469.331.745.599.864.267.065.59.102.941.102.61 0 1.292-.102 1.984-.304.923-.24 2.178-.902 3.036-1.656.194-.175.369-.35.517-.534l.009-.009.009-.009a.366.366 0 0 0-.037-.12"/>
            <g fill="#F2D2AC">
                <path d="M134.685 22.126c-.02.01-.04.01-.07.02.03 0 .05-.01.07-.02h.01-.01"/>
                <path fill-rule="nonzero" d="M134.835 24.092l.093-.065c.009-.009.027-.018.037-.027.027-.019.064-.037.092-.065.018-.009.028-.018.046-.027.028-.019.065-.037.092-.056a.202.202 0 0 0 .046-.027c.028-.019.065-.037.093-.055.018-.01.037-.019.055-.037.028-.019.065-.037.092-.055.019-.01.046-.028.065-.037a.432.432 0 0 1 .092-.046c.028-.01.046-.028.074-.037.028-.018.065-.028.092-.046.028-.01.056-.028.083-.037.028-.018.065-.027.093-.046.027-.018.055-.027.092-.046.028-.009.055-.027.092-.037.037-.018.065-.027.102-.046.027-.009.055-.027.083-.036.037-.019.074-.028.11-.046l.056-.028c.101-.396.433-1.38 1.18-1.573.084-.019.158-.037.222-.046.019 0 .037-.01.056-.01a1.067 1.067 0 0 1-.037-.165c-.074-.396.01-.745.184-.782.139-.028.268.156.296.22.064.12.12.268.157.442.027.157.036.304.018.433l.046.046c.203.193.268.487.286.699.065-.018.139-.028.203-.046.019 0 .037-.01.056-.01h.009c.009 0 .018 0 .027-.008.084-.019.176-.037.259-.056l.609-.11c-.12-.064-.194-.092-.194-.092-.544-.248-.627-.34-.692-1.178-.018-.303-.037-.699-.074-1.242 0-.073-.009-.138-.018-.202 0-.018 0-.028-.01-.046a7.245 7.245 0 0 0-.027-.175v-.037a2.985 2.985 0 0 0-.028-.128c0-.019-.01-.037-.01-.056-.008-.046-.018-.092-.036-.128-.01-.019-.01-.046-.018-.065a.448.448 0 0 0-.028-.064c-.01-.019-.019-.046-.028-.065a1.088 1.088 0 0 0-.295-.248l-.019-.01-.018-.008h-.01c-.018-.01-.036-.019-.045-.028l-.056-.028a1.211 1.211 0 0 0-.516-.11c-.102 0-.203.01-.305.018-.046.01-.101.019-.148.028-.129.028-.258.074-.387.129-.037.037-.083.073-.12.11-.037.028-.074.065-.102.092l-.018.019c-.037.027-.074.064-.11.092l-.02.018-.11.083-.018.018c-.037.028-.074.055-.12.083l-.019.01c-.037.027-.083.045-.12.073l-.018.009c-.046.018-.083.046-.13.064h-.009c-.046.019-.092.037-.147.046a2.367 2.367 0 0 1-.674.065c-.046 0-.092 0-.148-.01h-.055c-.13-.009-.25-.018-.378-.036-.056-.01-.111-.01-.157-.019l-.259-.027c-.018 0-.036 0-.055-.01-.074.01-.138.028-.212.047h-.019a3.617 3.617 0 0 0-.6.22c-.009.01-.018.01-.036.019-.028.018-.065.027-.093.046a.843.843 0 0 0-.12.073 3.482 3.482 0 0 0-.793.644 2.336 2.336 0 0 0-.268.332c-.129.174-.24.358-.332.542-.01.01-.01.019-.018.028a4.275 4.275 0 0 0-.13.304c-.009.036-.027.073-.036.11v.01c-.037.119-.074.238-.102.367v.019c0 .018-.01.036-.01.055l-.027.165c-.009.056-.018.12-.018.175v.037c0 .037 0 .074-.01.11 0 .13 0 .258.019.387 0 .027.01.064.01.092.082.202.193.377.313.543.461.607 1.135.92 1.606 1.067.184.055.378.101.572.138l.009.009.01-.01.064-.064.027-.027c.028-.019.046-.046.074-.065.01-.009.019-.018.028-.018.028-.018.046-.046.074-.064.009-.01.018-.019.027-.019.028-.018.056-.046.083-.064.01-.01.019-.019.028-.019.028-.018.055-.046.083-.064.01-.01.019-.018.028-.018.027-.019.055-.046.083-.065l.028-.027c.027-.019.055-.046.092-.065.046-.009.055-.018.064-.027m3.092-5.024c.23-.082.415-.055.553.019.056.027.111.064.148.11l.01.01c.008.009.018.018.027.036.157.184.203.405.203.405-.056-.055-.11-.092-.166-.138a4.247 4.247 0 0 0-.157-.101c-.572-.313-1.043-.037-1.043-.037.148-.202.425-.304.425-.304m-4.494 1.988a3.266 3.266 0 0 0-.406.717c-.046.12-.092.24-.139.368 0 0-.018-.092-.036-.239-.01-.11-.019-.24 0-.386 0-.046.009-.092.018-.138 0-.019.01-.028.01-.046a1.63 1.63 0 0 1 .202-.543c.139-.221.35-.423.665-.561.036-.019.083-.037.129-.056 0 0 .203-.064.452-.073h.055a.976.976 0 0 1 .37.064s-.194.028-.462.166c-.258.129-.572.35-.858.727m.406 1.821c-.019.01-.037.01-.046 0-.028-.018.009-.138.138-.285-.01-.202.028-.81.757-.966.064-.01.129-.018.184-.028h.046c.065 0 .12.01.176.019.387.083.526.441.572.616.13.074.184.147.166.157-.01.018-.028.018-.055.018a.585.585 0 0 1-.194.037c-.185.018-.47.037-.785.12-.018.009-.046.009-.064.018-.461.129-.812.331-.895.294m1.213-.796h-.02.02m7.47 5.442c-.295.34-.618.617-.941.847-.157.12-.323.22-.48.312-.36.212-.701.368-1.006.488a5.848 5.848 0 0 1-1.172.322c.406.166.895.101 1.227.028.222-.056.379-.11.379-.11.009.137.009.275 0 .395-.01.138-.037.267-.065.377v.01a1.473 1.473 0 0 1-.157.386c-.009.009-.009.027-.018.036l.028-.018c.11-.083.221-.166.332-.258.083-.064.166-.138.249-.211.138-.12.267-.249.397-.387.009-.009.018-.018.018-.027.13-.138.24-.285.35-.423.14-.194.268-.378.38-.57l.008-.01c.028-.046.056-.092.074-.138l.01-.01c.009-.018.018-.027.027-.045.037-.065.074-.129.102-.203.009-.018.018-.027.018-.046.018-.036.028-.073.046-.1.01-.028.028-.056.037-.084.01-.027.028-.055.037-.082.018-.056.046-.102.065-.157.009-.018.018-.037.018-.064.018-.037.028-.083.046-.12.01-.018.01-.037.019-.055l.009-.018a.902.902 0 0 0 .046-.148.345.345 0 0 0-.083.083m-8.812-2.64c-.093.046-.194.092-.296.156a3.57 3.57 0 0 0-.849.644c-.036.037-.064.074-.101.101-.055.065-.102.13-.148.194-.009.009-.009.018-.018.018-.01.01-.019.018-.019.028l-.055.082c-.01.01-.01.019-.018.037-.019.037-.047.074-.065.12l-.055.12c-.139.321-.194.699-.102 1.131V27.413c0-.01 0-.028.01-.046 0-.019.009-.037.009-.046v-.01c0-.018.009-.036.009-.055v-.009a.13.13 0 0 1 .018-.055v-.01c.01-.018.01-.045.019-.064V27.1c.009-.018.018-.046.027-.074a.562.562 0 0 1 .047-.11c.009-.01.009-.028.018-.037l.01-.009c.018-.028.027-.055.045-.083.01-.027.028-.046.046-.073.01-.01.01-.019.019-.019.01-.018.028-.037.037-.055.01-.01.01-.018.018-.018.019-.028.037-.046.056-.065 0 0-.286.939-.028 1.629v-.341c0-.027 0-.055.01-.073v-.01c0-.027.008-.055.008-.082 0-.01 0-.019.01-.028v-.018c.009-.019.009-.046.018-.065.01-.027.019-.064.028-.092 0-.009.009-.018.009-.027a.373.373 0 0 1 .046-.083s0 .22.046.487c.01.037.01.083.019.13.009.027.009.054.018.082-.018-.285 0-.552.046-.81.01-.073.028-.138.046-.211 0-.01 0-.019.01-.028l.055-.193c0-.01.01-.028.01-.037.018-.064.036-.12.064-.184 0-.009.01-.018.01-.027.045-.13.1-.24.156-.36 0-.008.01-.018.01-.027.018-.046.045-.083.064-.129.01-.009.01-.018.018-.036.01-.01.01-.019.019-.028.027-.046.055-.101.083-.147 0-.01.009-.019.009-.019.028-.046.065-.1.092-.147l.111-.165.083-.11c.01-.01.019-.028.028-.038.064-.082.129-.165.194-.23.184-.211.332-.34.378-.386-.037.01-.074.028-.11.046a.665.665 0 0 0-.222.083"/>
                <path fill-rule="nonzero" d="M138.739 22.252s-.01-.019-.019-.056c-.046-.128-.212-.423-.72-.303-.526.12-.655.57-.682.717-.01.028-.01.056-.01.056l.019.009c.064-.065.194-.074.314-.019a.408.408 0 0 1 .138.11c.055.065.074.139.046.194-.01.01-.01.028-.018.037 0 0 .018.009.055.009.157.028.572.064.766-.258.01-.018.018-.027.028-.046-.047-.018-.083-.073-.093-.156a.261.261 0 0 1 0-.12c.028-.12.102-.202.176-.174m-2.16 4.232c-.332.11-.627.202-.858.266h.037a9.68 9.68 0 0 0 1.772-.156c1.356-.258 3.11-.91 4.567-2.585v-.01a.752.752 0 0 0-.23-.496.332.332 0 0 0-.111-.074c-.01 0-.01-.009-.018-.009-.047-.018-.083-.037-.12-.055-.028-.019-.065-.028-.083-.046v-.01a3.529 3.529 0 0 1-.296.46c-.037.056-.083.102-.129.157-.397.46-.941.874-1.54 1.233-.997.58-2.123 1.03-2.99 1.325m-8.979-1.307c-.01.019-.028.028-.037.046l-.01.019c-.018.018-.027.046-.036.064l-.01.01c-.018.027-.027.054-.045.082l-.01.01c0 .008-.009.018-.009.018a.13.13 0 0 0-.018.055v.018l-.028.083c-.018.083-.037.156-.046.212 0 .018-.01.046-.01.064-.009.037-.009.074-.009.083v.009V25.867c0-.046-.009-.101-.009-.147v-.451c0-.027.01-.064.01-.092v-.009c0-.018 0-.046.009-.064v-.01c.009-.046.009-.092.018-.138v-.046a1.88 1.88 0 0 1 .046-.22v-.01c.01-.064.028-.12.046-.184v-.009a.284.284 0 0 0 .019-.073c.01-.037.018-.074.028-.12v-.01c0-.008.009-.036.018-.064 0-.009.01-.027.01-.036.008-.019.008-.046.018-.065l.009-.018c-.01-.01-.028-.01-.046-.019h-.01l-.018-.009c-.092-.027-.184-.055-.277-.064h-.018c-.065-.01-.12-.01-.185-.01-.037 0-.074 0-.11.01-.028 0-.065.009-.093.009l-.138.028c-.019 0-.028.009-.037.009-.018.009-.046.009-.065.018-.009 0-.018.01-.027.01-.019.009-.028.009-.046.018-.028.009-.056.027-.083.037-.01.009-.028.009-.037.018a.689.689 0 0 0-.148.092c-.019.01-.037.018-.046.037l-.019.009c-.018.01-.037.028-.055.037-.018.009-.028.027-.046.037-.019.018-.037.027-.056.046l-.027.027a.83.83 0 0 0-.083.092c-.01.019-.028.028-.037.046-.019.028-.046.055-.065.083l-.009.018c-.01.019-.018.037-.028.046-.009.01-.009.019-.018.037-.037.074-.074.147-.102.221 0 .01-.009.018-.009.037l-.028.11c0 .019-.009.028-.009.046 0 .01.01.019.01.028.018.027.027.064.046.092l.009.009.01.01c.018.027.027.054.045.091a2.502 2.502 0 0 0 .166.258l.01.055.009.01a1.91 1.91 0 0 0 .221.258l.019.017.009.01.018.018c-.009-.019-.009-.028-.018-.046a2.286 2.286 0 0 1-.083-.34v-.019a1.791 1.791 0 0 1-.019-.212c.01.028.019.056.037.074l.056.11.009.01c.074.147.157.266.23.368.093.12.167.193.213.239.01.009.018.018.028.018l.018.019a1.711 1.711 0 0 1-.092-.36c-.01-.036-.01-.082-.019-.119-.009-.055-.009-.101-.009-.147.037.083.065.156.102.23v.01c.129.248.276.432.369.533l.009.009c.018.018.028.037.046.046l.028.028.018.018.01.01-.01-.02c-.01-.018-.01-.036-.018-.045-.019-.065-.037-.12-.046-.184-.01-.037-.019-.083-.028-.12-.01-.037-.01-.073-.019-.11v-.019c0-.018 0-.036-.009-.055v-.018c0-.046-.01-.101-.01-.147.01.027.029.064.038.092.01.018.018.046.028.064v.01l.009.008c.009.028.027.046.037.074.027.046.046.083.073.12.028.046.065.092.093.128a.28.28 0 0 1 .046.065c.018.027.037.046.055.073.019.019.037.037.046.056l.01.009.037.037.027.027.037.037.01.01V26.308c0-.092.009-.175.009-.258v-.119c0-.065.009-.13.009-.194 0-.055.009-.11.009-.156v-.23c0-.018 0-.037.01-.046v-.11l.073-.019m11.571 2.438c.12-.064.231-.11.314-.156.166-.092.258-.157.25-.175-.01-.018-.112.01-.296.074-.092.036-.203.064-.323.11-.065.028-.13.037-.203.064-.074.019-.148.046-.23.065-.158.046-.342.083-.536.138-.092.018-.194.037-.295.064-.102.019-.212.037-.323.055a7.17 7.17 0 0 1-1.43.083 2.861 2.861 0 0 1-.895-.202h-.01c.083-.543.619-.681.619-.681h-.434c-.332.018-.48.322-.526.442-.01.018-.01.036-.019.055-.037.11-.046.239-.046.377.019.248.111.506.332.718.148.138.379.248.674.322-.268-.13-.517-.396-.6-.865.296.083.628.12.877.129a6.477 6.477 0 0 0 1.495-.102c.11-.027.221-.046.332-.073.101-.028.212-.055.304-.083.194-.055.37-.11.536-.175a1.72 1.72 0 0 0 .23-.092c.074-.037.148-.055.203-.092"/>
            </g>
            <path fill="#664F44" fill-rule="nonzero" d="M137.982 21.57c.277-.027.47.038.609.148.018-.129.01-.276-.018-.432a1.38 1.38 0 0 0-.157-.442c-.028-.064-.157-.248-.296-.22-.175.036-.258.376-.184.781.018.055.028.11.046.166m-3.211.828c.314-.092.609-.046.803-.019.092.019.166.028.203.028.027 0 .046-.01.055-.018.018-.019-.046-.092-.166-.157-.028-.018-.055-.027-.083-.046-.028-.009-.065-.027-.092-.037a1.164 1.164 0 0 0-.093-.027h-.009a.329.329 0 0 0-.092-.019h-.019c-.027-.009-.064-.009-.101-.018h-.019c-.037 0-.073-.01-.11-.01h-.102c-.018 0-.037 0-.055.01h-.028c-.018 0-.037.01-.055.01-.01 0-.019 0-.028.008-.028.01-.055.01-.083.019h-.01c-.018.009-.036.009-.064.018-.018.01-.046.01-.064.019-.019.009-.047.018-.065.027l-.055.028a.45.45 0 0 1-.065.027.202.202 0 0 0-.046.028c-.019.01-.037.028-.055.037-.01.009-.028.018-.037.027-.019.01-.037.028-.056.037-.009.01-.018.019-.037.028-.018.018-.037.027-.055.046-.01.009-.018.018-.028.018-.018.019-.037.037-.055.046l-.019.019c-.018.018-.036.046-.055.064-.13.147-.166.276-.138.285.009.01.027.01.046 0 .12-.046.415-.322.858-.46.037 0 .055-.009.074-.018m3.802.147c.009.074.046.138.092.156.074.028.138-.055.166-.184v-.036c.01-.11-.028-.212-.092-.24-.065-.027-.139.056-.166.184 0 .046-.01.083 0 .12m-1.218.35a.367.367 0 0 0 .147.11c.13.064.259.046.323-.018.01-.01.019-.019.019-.037.027-.055 0-.129-.047-.193a.562.562 0 0 0-.138-.11c-.13-.056-.258-.047-.314.018a.127.127 0 0 0-.027.036c-.037.065-.019.13.037.194m4.927 3.661a4.78 4.78 0 0 1-.526.534c-.858.754-2.122 1.417-3.036 1.656a7.183 7.183 0 0 1-1.984.303c-.35 0-.673-.036-.94-.1-.296-.074-.536-.185-.675-.323a1.06 1.06 0 0 1-.332-.717c-.009-.13.01-.258.046-.378.01-.018.01-.036.019-.055.046-.129.194-.423.526-.441h.415c.914 0 1.79-.12 2.602-.35a7.981 7.981 0 0 0 3.138-1.684c.046-.046.092-.082.138-.128l.443-.874c-1.458 1.674-3.202 2.327-4.568 2.576a9.68 9.68 0 0 1-1.771.156h-.406a.73.73 0 0 0-.286.074.998.998 0 0 0-.425.404 1.372 1.372 0 0 0 .11 1.445c.01.009.01.018.02.027.018.019.036.046.055.065l.083.083c.332.312.978.506 1.817.506.563 0 1.219-.083 1.91-.276 2.04-.635 2.944-1.426 3.35-1.96l.083-.11c.139-.212.194-.36.212-.433v-.009c.01-.018.01-.028.01-.028l-.028.037"/>
            <path fill="#132134" d="M138.646 12.086a1.906 1.906 0 0 0-.618-.36l-.12-.027c-.018-.009-.046-.018-.064-.027a2.61 2.61 0 0 0-.6-.074c-1.006-.01-2.095.488-2.713.819-.037.018-.065.037-.102.055a1.39 1.39 0 0 0-.156.092c-.093.055-.176.11-.268.166-.01.009-.028.018-.037.027l-.203-.184-.092-.083-.083-.073-.037-.037-.757-.69-.064-.064-.074-.074h-.01l-.184.064-.212.074a1.32 1.32 0 0 0-.443-.064c-.332 0-.757.082-1.218.266a8.72 8.72 0 0 0-1.514.8c-1.08.71-2.242 1.73-3.33 2.982-.379.441-.73.883-1.053 1.324-.304.424-.59.856-.83 1.27-.498.846-.867 1.647-1.07 2.355-.139.47-.213.893-.213 1.251a2 2 0 0 0 .102.663c.018.055.046.11.074.156.055.101.12.193.203.267l.83.68.092.074v-.009c.019-.027.037-.055.065-.083l.01-.009c.008-.009.018-.018.018-.027.018-.028.037-.056.055-.074.01-.018.028-.028.037-.046.01-.018.028-.028.037-.046l.018-.018c.01-.019.028-.028.037-.046.019-.019.037-.046.056-.065l.037-.037.009-.009.064-.064.037-.037c.019-.018.046-.037.065-.064a.201.201 0 0 1 .046-.037c.028-.019.046-.037.074-.055a.162.162 0 0 0 .046-.037.512.512 0 0 0 .074-.055c.018-.01.027-.019.046-.028l.018-.01c.019-.018.046-.027.065-.045.01-.01.028-.019.037-.028.018-.009.037-.027.055-.037l.056-.027.018-.01a.845.845 0 0 1 .13-.064c.018-.009.027-.009.045-.018.019-.01.028-.019.046-.019l.019-.009c.01 0 .018-.009.028-.009l.055-.028.018-.009c.019-.009.047-.018.065-.027.018-.01.046-.019.065-.028l.083-.028c.009 0 .018-.009.037-.009.009 0 .018-.009.036-.009a.27.27 0 0 1 .084-.018c.027-.01.046-.01.073-.019.019 0 .037-.009.056-.018.009 0 .018 0 .018-.01.01 0 .019 0 .028-.009h.018a1.59 1.59 0 0 1 .314-.027h.018c.12 0 .24 0 .379.009.028 0 .064.01.092.01.01-.01.01-.028.019-.038l.166-.386c.332-.736.7-1.39 1.088-1.969.13-.193.268-.386.406-.57a11.406 11.406 0 0 1 1.698-1.822c.12-.101.24-.202.36-.294.157-.129.314-.24.462-.35.12-.083.23-.165.341-.239a9.249 9.249 0 0 1 .803-.47c-.046 0-.102 0-.148.01-.046 0-.092.01-.147.01h-.037c-.047.008-.102.008-.148.018-.092.018-.194.036-.286.064l-.102.028a3.67 3.67 0 0 1 .692-.378c.148-.064.296-.12.443-.165.194-.065.388-.11.563-.138.12-.019.231-.037.332-.046a4.185 4.185 0 0 1 .775-.01.646.646 0 0 0-.175-.137c-.12-.074-.249-.11-.36-.148-.046-.009-.083-.018-.12-.027-.027-.01-.055-.01-.083-.01.047-.018.102-.027.148-.036.055-.01.102-.028.157-.037a4.034 4.034 0 0 1 1.098-.083c.35.019.563.083.563.083a.752.752 0 0 0-.23-.22 1.039 1.039 0 0 0-.195-.111c.12.009.231.027.342.046.286.055.526.12.72.184.064.018.12.046.175.064.018.01.028.01.046.019.175.073.277.128.277.128a.83.83 0 0 0-.185-.257l-.055-.055h.01c.008 0 .018 0 .036.009.018 0 .028.009.055.009.074.018.194.046.333.101.009 0 .009.01.018.01.018.009.037.018.055.018.047.018.102.037.148.064.046.019.092.046.148.074.027.009.055.027.073.037.056.027.111.064.167.1.055.038.11.074.166.12l.027.028c.037.028.074.064.111.101.074.065.139.138.203.221.074.092.139.202.194.322 0 .01.01.01.01.018a4.51 4.51 0 0 0 .12-.174c.46-.69 1.808-2.89.7-4.002"/>
            <path fill="#2F83C1" d="M132.123 12.509l-.074-.359.138-.423.074-.028a1.32 1.32 0 0 0-.443-.064c-.332 0-.757.083-1.218.267a8.72 8.72 0 0 0-1.513.8c-1.09.7-2.252 1.72-3.34 2.972-.379.441-.73.883-1.053 1.324-.304.424-.59.856-.83 1.27-.498.846-.867 1.647-1.07 2.355-.139.47-.213.893-.213 1.251a2 2 0 0 0 .102.663c.018.055.046.11.074.156.055.101.12.193.203.267l.83.68.092.074v-.009c.019-.027.037-.055.065-.083l.01-.009c.008-.009.018-.018.018-.027.018-.028.037-.056.055-.074.01-.018.028-.028.037-.046.01-.018.028-.028.037-.046l.018-.018c.01-.019.028-.028.037-.046.019-.019.037-.046.056-.065l.037-.037.009-.009.064-.064.037-.037c.019-.018.046-.037.065-.064a.201.201 0 0 1 .046-.037c.028-.019.046-.037.074-.055a.162.162 0 0 0 .046-.037.512.512 0 0 0 .074-.055c.018-.01.027-.019.046-.028l.018-.01a8.96 8.96 0 0 1 .6-1.664c.342-.727.794-1.51 1.357-2.291.35-.497.738-.994 1.162-1.481a20.014 20.014 0 0 1 1.689-1.72c.387-.341.766-.654 1.144-.93l.11-.083c.102-.073.204-.138.305-.211.213-.148.434-.286.637-.405l-.12-.12-.018-.018-.157-.147-.877-.828-.074-.626-.009-.01.517-.22 1.126.405"/>
            <path fill="#4D9ED7" d="M132.365 12.604l.03.01-.03-.01z"/>
            <path fill="#FFD250" d="M132.658 11.552l-.48.166.212.883-1.393-.506-.517.22.01.01 1.808 1.619.018-.01.019-.018.138-.11c.019-.01.028-.028.046-.037.065-.055.139-.101.203-.156l-.766-.69 1.163.405.092-.065-.193-.763.562.515h.01a.523.523 0 0 1 .12-.074l.009-.009.018-.01c.01 0 .01-.008.019-.008.018-.01.037-.019.046-.037 0 0 .01 0 .01-.01.055-.036.11-.073.165-.1l-1.32-1.215"/>
            <path fill="#4D9ED7" fill-rule="nonzero" d="M132.191 11.76l-.01-.04.01.04m-.013-.042l.074-.028a1.32 1.32 0 0 0-.443-.064c-.332 0-.757.082-1.218.266a8.72 8.72 0 0 0-1.514.8c-1.08.71-2.242 1.73-3.33 2.982-.379.441-.73.883-1.053 1.324l1.698 1.638c.35-.488.738-.975 1.154-1.463a20.858 20.858 0 0 1 1.725-1.757 14.618 14.618 0 0 1 1.68-1.306l-.397-1.132-.065-.644-.009-.01.517-.22 1.116.414-.074-.359.139-.441"/>
            <path fill="#132134" fill-rule="nonzero" d="M132.178 11.718l-.13.432.075.359.267.101-.212-.892zm-.23 1.205l1.162.405-.388.294-.775-.7zm1.06-.423l.194.763.378-.257-.572-.506z"/>
            <path fill="#FFF" d="M137.115 11.718l.193-.028c.185-.018.36-.018.526.01h.074c-.018-.01-.046-.02-.064-.028a2.61 2.61 0 0 0-.6-.074c-1.006-.01-2.095.488-2.713.819-.037.018-.065.037-.102.055a1.39 1.39 0 0 0-.156.092c-.093.055-.176.11-.268.166-.01.009-.028.018-.037.027-.055.037-.11.065-.166.101 0 0-.01 0-.01.01-.018.009-.036.018-.045.036-.01 0-.01.01-.019.01l-.018.009-.01.009c-.036.028-.073.046-.12.074h-.009c-.009.009-.018.009-.027.018h-.01c-.009.01-.018.01-.018.018-.065.037-.12.083-.185.12-.046.028-.083.055-.129.083l-.01.009-.091.064a8.2 8.2 0 0 0-.296.221c-.009.01-.018.019-.027.019-.01.009-.019.009-.028.018-.01.01-.018.01-.028.018l-.009.01c-.065.055-.138.1-.203.156-.018.01-.037.028-.046.037l-.138.11-.019.019-.018.009c-.13.101-.25.211-.379.322-.203.175-.406.359-.609.552-.027.027-.055.046-.074.073a21.871 21.871 0 0 0-1.494 1.574 30.98 30.98 0 0 0-1.412 1.757c-.24.303-.443.58-.618.81-.333.46-.517.735-.508.745 0 0 .037-.028.083-.102-.046.065-.083.13-.13.194a35.632 35.632 0 0 1 2.455-2.99 25.059 25.059 0 0 1 1.717-1.712c.258-.239.526-.469.803-.69.083-.073.175-.138.258-.211.046-.037.092-.065.13-.101.027-.019.045-.037.073-.056l.138-.11a1.32 1.32 0 0 1 .139-.101c.027-.019.046-.037.074-.055.055-.046.12-.083.175-.13.037-.027.074-.054.11-.073.111-.083.231-.156.342-.23.01-.009.018-.009.028-.018.018-.01.037-.028.055-.037l.074-.046c.01-.01.018-.01.028-.018.018-.01.027-.019.046-.028 0 0 .009 0 .009-.01h.01c.045-.027.1-.064.147-.091.009-.01.018-.01.027-.019.019-.009.028-.018.047-.027.055-.037.11-.074.175-.11.018-.01.028-.019.046-.028.01-.01.019-.01.028-.019.018-.009.027-.018.046-.027.064-.037.13-.083.194-.12.055-.037.12-.064.175-.101.332-.184.637-.35.932-.478.563-.276 1.052-.433 1.486-.506"/>
        </g>
        <g>
            <g transform="translate(1 4)">
                <use fill="#000" filter="url(#l)" xlink:href="#m"/>
                <use fill="#FFF" stroke="#FFF" stroke-width=".5" xlink:href="#m"/>
            </g>
            <path fill="#758AFE" d="M32.14 17.566c.404.083.404.658 0 .74l-.343.071-2.15.441v-1.762l2.15.44.343.07z"/>
            <path fill="#536DFE" d="M30.85 22.614h-8.562v-4.262c0-2.353 1.917-4.262 4.282-4.262 2.364 0 4.281 1.909 4.281 4.262v4.262z"/>
            <path fill="#758AFE" d="M22.288 31.138v-8.524h8.563c0 4.708-3.834 8.524-8.563 8.524"/>
            <path fill="#536DFE" d="M14.448 25.402h8.563v8.525c-4.73 0-8.563-3.817-8.563-8.525"/>
            <path fill="#BAC5FF" d="M22.419 18.352h-2.437v8.524h2.437c2.364 0 4.28-1.908 4.28-4.262 0-2.354-1.916-4.262-4.28-4.262M16.292 18.352v8.324a8.6 8.6 0 0 0 1.845.2v-8.524h-1.845zM9.574 18.352c0 3.392 1.992 6.322 4.873 7.694v-7.694H9.574z"/>
            <path fill="#758AFE" d="M18.137 18.352h1.845v8.524h-1.845zM14.448 18.352v7.694c.581.277 1.2.489 1.845.63v-8.324h-1.845z"/>
            <path fill="#FFF" d="M29.093 17.743a1.113 1.113 0 0 1-.906 1.29 1.113 1.113 0 1 1-.388-2.192 1.117 1.117 0 0 1 1.294.902"/>
            <path fill="#536DFE" d="M28.465 17.854a.48.48 0 1 1-.944.166.48.48 0 0 1 .944-.166"/>
            <path fill="#FFF" d="M28.514 17.517a.261.261 0 1 1-.303-.212.262.262 0 0 1 .303.212"/>
            <path fill="#8E9DF3" d="M32.14 17.566c.404.083.404.658 0 .74l-.343.071-2.15.441v-1.762l2.15.44.343.07z"/>
            <path fill="#7081E3" d="M22.288 22.614v-4.262c0-2.353 1.917-4.262 4.282-4.262 2.364 0 4.281 1.909 4.281 4.262v4.262h-8.563z"/>
            <path fill="#8E9DF3" d="M22.288 31.138v-8.524h8.563c0 4.708-3.834 8.524-8.563 8.524"/>
            <path fill="#7081E3" d="M14.448 25.402h8.563v8.525c-4.73 0-8.563-3.817-8.563-8.525"/>
            <path fill="#B6C1FF" d="M19.982 18.352v8.524h2.437c2.364 0 4.28-1.908 4.28-4.262 0-2.354-1.916-4.262-4.28-4.262h-2.437zM16.292 18.352v8.324a8.6 8.6 0 0 0 1.845.2v-8.524h-1.845zM9.574 18.352c0 3.392 1.992 6.322 4.873 7.694v-7.694H9.574z"/>
            <path fill="#8E9DF3" d="M18.137 18.352h1.845v8.524h-1.845zM14.448 18.352v7.694c.581.277 1.2.489 1.845.63v-8.324h-1.845z"/>
            <path fill="#FFF" d="M29.093 17.743a1.113 1.113 0 0 1-.906 1.29 1.113 1.113 0 1 1-.388-2.192 1.117 1.117 0 0 1 1.294.902"/>
            <path fill="#7081E3" d="M28.465 17.854a.48.48 0 1 1-.944.166.48.48 0 0 1 .944-.166"/>
            <path fill="#FFF" d="M28.514 17.517a.261.261 0 1 1-.303-.212.262.262 0 0 1 .303.212"/>
        </g>
    </g>
</svg>
