<?xml version="1.0" encoding="UTF-8"?>
<svg width="89px" height="16px" viewBox="0 0 89 16" version="1.1" xmlns="http://www.w3.org/2000/svg" xmlns:xlink="http://www.w3.org/1999/xlink">
    <!-- Generator: Sketch 61.2 (89653) - https://sketch.com -->
    <title>Getform 2</title>
    <desc>Created with Sketch.</desc>
    <g id="form-detail-new" stroke="none" stroke-width="1" fill="none" fill-rule="evenodd">
        <g id="Artboard" transform="translate(-22.000000, -30.000000)" fill="#6B7DDF" fill-rule="nonzero">
            <g id="Getform-2" transform="translate(22.000000, 30.000000)">
                <path d="M8.27659902,16 C8.70842158,16 9.14424249,15.9769784 9.58406177,15.9309353 C10.023881,15.8848921 10.4437085,15.8196643 10.8435442,15.7352518 C11.2433799,15.6508393 11.6112288,15.5510791 11.9470908,15.4359712 C12.2829528,15.3208633 12.5628377,15.2019185 12.7867457,15.0791367 C13.170588,14.8642686 13.450473,14.6417266 13.6264007,14.4115108 C13.8023284,14.181295 13.8902923,13.8282974 13.8902923,13.352518 L13.8902923,13.352518 L13.8902923,8.65611511 C13.8902923,8.19568345 13.7583465,7.83884892 13.4944549,7.58561151 C13.2305634,7.3323741 12.8587162,7.2057554 12.3789133,7.2057554 L12.3789133,7.2057554 L8.32457931,7.2057554 C7.90875018,7.2057554 7.56888983,7.32853717 7.30499827,7.57410072 C7.0411067,7.81966427 6.90916092,8.21870504 6.90916092,8.77122302 C6.90916092,9.07817746 6.95314285,9.36978417 7.0411067,9.64604317 C7.12907056,9.92230216 7.22103277,10.1448441 7.31699334,10.3136691 L7.31699334,10.3136691 L9.88393854,10.3136691 L9.88393854,12.4776978 C9.73999769,12.5544365 9.53208312,12.6235012 9.26019485,12.6848921 C8.98830657,12.746283 8.67643472,12.7769784 8.32457931,12.7769784 C7.78080275,12.7769784 7.26901305,12.6964029 6.78921021,12.5352518 C6.30940737,12.3741007 5.88558153,12.1285372 5.51773268,11.7985612 C5.14988384,11.4685851 4.85800377,11.0465228 4.64209249,10.5323741 C4.42618122,10.0182254 4.31822558,9.40815348 4.31822558,8.70215827 C4.31822558,7.39760192 4.71406292,6.37697842 5.50573761,5.64028777 C6.2974123,4.90359712 7.36497362,4.5352518 8.70842158,4.5352518 C9.4601127,4.5352518 10.135835,4.64652278 10.7355886,4.86906475 C11.3353421,5.09160671 11.8351368,5.31798561 12.2349725,5.54820144 C12.5068607,5.3793765 12.7467622,5.14916067 12.9546767,4.85755396 C13.1625913,4.56594724 13.2665486,4.2206235 13.2665486,3.82158273 C13.2665486,3.06954436 12.8227309,2.45947242 11.9350957,1.99136691 C11.0474604,1.52326139 9.84395497,1.28920863 8.32457931,1.28920863 C7.26901305,1.28920863 6.2414353,1.44268585 5.24184605,1.74964029 C4.24225679,2.05659472 3.35462154,2.52086331 2.57894027,3.14244604 C1.80325901,3.76402878 1.17951532,4.54292566 0.707709192,5.47913669 C0.235903064,6.41534772 0,7.51270983 0,8.77122302 C0,9.96834532 0.215911279,11.0196643 0.647733836,11.9251799 C1.07955639,12.8306954 1.66731488,13.5865707 2.41100928,14.1928058 C3.15470369,14.7990408 4.03034387,15.2517986 5.03792984,15.5510791 C6.04551581,15.8503597 7.1250722,16 8.27659902,16 Z M22.2742757,16 C22.8340457,16 23.4337993,15.9539568 24.0735364,15.8618705 C24.7132735,15.7697842 25.2890369,15.5932854 25.8008266,15.3323741 C26.4725506,14.9947242 26.8084126,14.4805755 26.8084126,13.7899281 C26.8084126,13.4829736 26.7204487,13.1913669 26.544521,12.9151079 C26.3685933,12.6388489 26.152682,12.4239808 25.8967872,12.2705036 C25.5289383,12.4853717 25.0531339,12.6733813 24.4693737,12.8345324 C23.8856136,12.9956835 23.2658683,13.076259 22.6101377,13.076259 C21.9064269,13.076259 21.2826832,12.9496403 20.7389066,12.6964029 C20.1951301,12.4431655 19.835278,12.0633094 19.6593503,11.5568345 L19.6593503,11.5568345 L25.5849153,10.705036 C26.1286919,10.6282974 26.5525177,10.4517986 26.8563929,10.1755396 C27.160268,9.89928058 27.3122056,9.50023981 27.3122056,8.97841727 C27.3122056,8.27242206 27.1722631,7.62014388 26.8923781,7.02158273 C26.6124931,6.42302158 26.2206541,5.9088729 25.7168611,5.47913669 C25.2130681,5.04940048 24.6133146,4.7117506 23.9176005,4.46618705 C23.2218864,4.2206235 22.4502034,4.09784173 21.6025518,4.09784173 C20.8508606,4.09784173 20.115163,4.20911271 19.3954587,4.43165468 C18.6757544,4.65419664 18.0360173,4.99952038 17.4762473,5.4676259 C16.9164773,5.93573141 16.464663,6.53429257 16.1208043,7.26330935 C15.7769456,7.99232614 15.6050162,8.86330935 15.6050162,9.87625899 C15.6050162,10.9045564 15.7769456,11.8023981 16.1208043,12.5697842 C16.464663,13.3371703 16.9364691,13.9741007 17.5362227,14.4805755 C18.1359762,14.9870504 18.8396871,15.3669065 19.6473552,15.6201439 C20.4550233,15.8733813 21.3306635,16 22.2742757,16 Z M19.3714685,8.97841727 C19.387462,8.73285372 19.4394406,8.4911271 19.5274045,8.25323741 C19.6153683,8.01534772 19.7473141,7.80047962 19.9232418,7.60863309 C20.0991695,7.41678657 20.3270759,7.25947242 20.6069609,7.13669065 C20.8868459,7.01390887 21.2187095,6.95251799 21.6025518,6.95251799 C22.1943086,6.95251799 22.6421246,7.1059952 22.9459997,7.41294964 C23.2498749,7.71990408 23.4258026,8.02685851 23.4737828,8.33381295 L23.4737828,8.33381295 L19.3714685,8.97841727 Z M33.489096,15.9769784 C34.6406228,15.9769784 35.4442926,15.7928058 35.9001053,15.4244604 C36.355918,15.0561151 36.5838243,14.5803357 36.5838243,13.9971223 C36.5838243,13.7055156 36.5318457,13.4561151 36.4278884,13.2489209 C36.3239311,13.0417266 36.199982,12.853717 36.0560412,12.6848921 C35.86412,12.746283 35.640212,12.7961631 35.3843172,12.8345324 C35.1284223,12.8729017 34.8805242,12.8920863 34.6406228,12.8920863 C34.16082,12.8920863 33.7889727,12.8076739 33.5250812,12.6388489 C33.2611896,12.470024 33.1292438,12.1860911 33.1292438,11.7870504 L33.1292438,11.7870504 L33.1292438,8.31079137 L35.3123468,8.31079137 C35.7281759,8.31079137 36.0600395,8.19184652 36.3079377,7.95395683 C36.5558358,7.71606715 36.6797849,7.32853717 36.6797849,6.79136691 C36.6797849,6.48441247 36.6358029,6.20431655 36.5478391,5.95107914 C36.4598752,5.69784173 36.367913,5.48681055 36.2719525,5.31798561 L36.2719525,5.31798561 L33.1292438,5.31798561 L33.1292438,3.84460432 C33.1292438,3.07721823 32.9333243,2.57458034 32.5414854,2.33669065 C32.1496464,2.09880096 31.6018715,1.97985612 30.8981606,1.97985612 C30.5303118,1.97985612 30.1824547,2.00671463 29.8545894,2.06043165 C29.5267242,2.11414868 29.2748277,2.16402878 29.0989,2.21007194 L29.0989,2.21007194 L29.0989,12.0633094 C29.0989,13.4446043 29.4787439,14.4422062 30.2384317,15.0561151 C30.9981196,15.670024 32.0816743,15.9769784 33.489096,15.9769784 Z M40.7215526,15.8158273 C41.0894015,15.8158273 41.4452552,15.7928058 41.7891139,15.7467626 C42.1329726,15.7007194 42.3848691,15.6546763 42.5448034,15.6086331 L42.5448034,15.6086331 L42.5448034,8.31079137 L45.3036698,8.31079137 C45.7194989,8.31079137 46.0513625,8.19184652 46.2992607,7.95395683 C46.5471588,7.71606715 46.6711079,7.32853717 46.6711079,6.79136691 C46.6711079,6.48441247 46.6271259,6.20431655 46.5391621,5.95107914 C46.4511982,5.69784173 46.359236,5.48681055 46.2632754,5.31798561 L46.2632754,5.31798561 L42.3288921,5.31798561 L42.3288921,4.58129496 C42.3288921,4.02877698 42.5208133,3.641247 42.9046556,3.41870504 C43.2884978,3.19616307 43.8242777,3.08489209 44.5119951,3.08489209 C44.9438176,3.08489209 45.3236615,3.1117506 45.6515268,3.16546763 C45.9793921,3.21918465 46.2952623,3.28441247 46.5991374,3.36115108 C46.7590717,3.2383693 46.9070109,3.05419664 47.0429551,2.80863309 C47.1788992,2.56306954 47.2468713,2.28681055 47.2468713,1.97985612 C47.2468713,1.25851319 46.9669863,0.748201439 46.4072163,0.448920863 C45.8474463,0.149640288 44.9758045,0 43.7922908,0 C43.0565931,0 42.3648774,0.08441247 41.7171435,0.25323741 C41.0694097,0.42206235 40.5056413,0.686810552 40.0258385,1.04748201 C39.5460357,1.40815348 39.1661917,1.86858513 38.8863068,2.42877698 C38.6064218,2.98896882 38.4664793,3.66043165 38.4664793,4.44316547 L38.4664793,4.44316547 L38.4664793,13.9741007 C38.4664793,14.3577938 38.5184579,14.6685851 38.6224152,14.9064748 C38.7263725,15.1443645 38.8743117,15.3323741 39.0662328,15.4705036 C39.258154,15.6086331 39.494057,15.7007194 39.773942,15.7467626 C40.053827,15.7928058 40.3696972,15.8158273 40.7215526,15.8158273 Z M53.7596237,16 C54.7032359,16 55.5588843,15.8695444 56.3265689,15.6086331 C57.0942534,15.3477218 57.7539823,14.9640288 58.3057556,14.457554 C58.8575288,13.9510791 59.285353,13.3256595 59.5892282,12.581295 C59.8931033,11.8369305 60.0450409,10.9889688 60.0450409,10.0374101 C60.0450409,9.14724221 59.8931033,8.33381295 59.5892282,7.5971223 C59.285353,6.86043165 58.8575288,6.23501199 58.3057556,5.72086331 C57.7539823,5.20671463 57.0942534,4.80767386 56.3265689,4.52374101 C55.5588843,4.23980815 54.7032359,4.09784173 53.7596237,4.09784173 C52.8160114,4.09784173 51.960363,4.23597122 51.1926784,4.51223022 C50.4249939,4.78848921 49.765265,5.18369305 49.2134917,5.69784173 C48.6617185,6.21199041 48.2338943,6.83741007 47.9300191,7.57410072 C47.626144,8.31079137 47.4742064,9.13189448 47.4742064,10.0374101 C47.4742064,10.9582734 47.626144,11.7870504 47.9300191,12.523741 C48.2338943,13.2604317 48.6617185,13.8858513 49.2134917,14.4 C49.765265,14.9141487 50.4249939,15.3093525 51.1926784,15.5856115 C51.960363,15.8618705 52.8160114,16 53.7596237,16 Z M53.7836138,12.9381295 C53.1118898,12.9381295 52.588105,12.688729 52.2122595,12.1899281 C51.8364139,11.6911271 51.6484911,10.9736211 51.6484911,10.0374101 C51.6484911,9.11654676 51.8324156,8.40671463 52.2002644,7.90791367 C52.5681133,7.40911271 53.0878997,7.15971223 53.7596237,7.15971223 C54.4313476,7.15971223 54.951134,7.40911271 55.3189829,7.90791367 C55.6868317,8.40671463 55.8707562,9.11654676 55.8707562,10.0374101 C55.8707562,10.9582734 55.6908301,11.6719424 55.330978,12.1784173 C54.9711258,12.6848921 54.4553378,12.9381295 53.7836138,12.9381295 Z M64.0628185,15.8158273 C64.4306673,15.8158273 64.7865211,15.7928058 65.1303798,15.7467626 C65.4742385,15.7007194 65.726135,15.6546763 65.8860693,15.6086331 L65.8860693,15.6086331 L65.8860693,7.75827338 C66.0939839,7.66618705 66.3458803,7.58561151 66.6417588,7.51654676 C66.9376372,7.44748201 67.2535074,7.3822542 67.5893694,7.32086331 C67.9252314,7.25947242 68.2690901,7.21342926 68.6209455,7.18273381 C68.9728009,7.15203837 69.3166596,7.13669065 69.6525216,7.13669065 C69.7484822,6.96786571 69.8284493,6.77985612 69.892423,6.57266187 C69.9563967,6.36546763 69.9883836,6.15443645 69.9883836,5.93956835 C69.9883836,5.29496403 69.7644756,4.83069544 69.3166596,4.54676259 C68.8688436,4.26282974 68.2610934,4.12086331 67.4934088,4.12086331 C67.0295994,4.12086331 66.56579,4.15539568 66.1019806,4.22446043 C65.6381712,4.29352518 65.1903552,4.38944844 64.7585326,4.51223022 C64.3267101,4.63501199 63.922876,4.77697842 63.5470304,4.9381295 C63.1711849,5.09928058 62.8553147,5.27961631 62.5994198,5.47913669 C62.343525,5.67865707 62.1476055,5.90503597 62.0116613,6.15827338 C61.8757172,6.41151079 61.8077451,6.7146283 61.8077451,7.0676259 L61.8077451,7.0676259 L61.8077451,13.9741007 C61.8077451,14.3577938 61.8597238,14.6685851 61.9636811,14.9064748 C62.0676383,15.1443645 62.2155775,15.3323741 62.4074987,15.4705036 C62.5994198,15.6086331 62.8353229,15.7007194 63.1152079,15.7467626 C63.3950929,15.7928058 63.7109631,15.8158273 64.0628185,15.8158273 Z M87.1767492,15.8158273 C87.544598,15.8158273 87.9004518,15.7928058 88.2443105,15.7467626 C88.5881692,15.7007194 88.8400657,15.6546763 89,15.6086331 L89,15.6086331 L89,8.35683453 C89,7.57410072 88.8640559,6.91031175 88.5921676,6.36546763 C88.3202793,5.8206235 87.9564288,5.38321343 87.5006161,5.05323741 C87.0448034,4.72326139 86.525017,4.48153477 85.9412569,4.32805755 C85.3574968,4.17458034 84.7617416,4.09784173 84.1539913,4.09784173 C83.3063396,4.09784173 82.582637,4.19760192 81.9828834,4.3971223 C81.3831299,4.59664269 80.8433517,4.8498801 80.3635488,5.15683453 C79.8997394,4.80383693 79.3519645,4.53908873 78.7202241,4.36258993 C78.0884837,4.18609113 77.4447482,4.09784173 76.7890177,4.09784173 C75.9093791,4.09784173 75.0657258,4.21294964 74.2580577,4.44316547 C73.4503896,4.67338129 72.7746672,4.97266187 72.2308907,5.34100719 C71.9110221,5.5558753 71.6591256,5.78609113 71.4752012,6.03165468 C71.2912768,6.27721823 71.1993146,6.60719424 71.1993146,7.02158273 L71.1993146,7.02158273 L71.1993146,13.9741007 C71.1993146,14.3577938 71.2512932,14.6685851 71.3552505,14.9064748 C71.4592078,15.1443645 71.607147,15.3323741 71.7990681,15.4705036 C71.9909893,15.6086331 72.2268923,15.7007194 72.5067773,15.7467626 C72.7866623,15.7928058 73.1025325,15.8158273 73.4543879,15.8158273 C73.8222368,15.8158273 74.1780905,15.7928058 74.5219492,15.7467626 C74.865808,15.7007194 75.1177044,15.6546763 75.2776387,15.6086331 L75.2776387,15.6086331 L75.2776387,7.52805755 C75.4215796,7.45131894 75.5975073,7.37074341 75.8054218,7.28633094 C76.0133364,7.20191847 76.2612345,7.15971223 76.5491163,7.15971223 C76.9649454,7.15971223 77.3207992,7.26330935 77.6166776,7.4705036 C77.912556,7.67769784 78.0604952,8.01151079 78.0604952,8.47194245 L78.0604952,8.47194245 L78.0604952,13.9741007 C78.0604952,14.3577938 78.1124738,14.6685851 78.2164311,14.9064748 C78.3203884,15.1443645 78.4683276,15.3323741 78.6602488,15.4705036 C78.8521699,15.6086331 79.088073,15.7007194 79.3679579,15.7467626 C79.6478429,15.7928058 79.9637131,15.8158273 80.3155686,15.8158273 C80.667424,15.8158273 81.015281,15.7928058 81.3591397,15.7467626 C81.7029984,15.7007194 81.9628917,15.6546763 82.1388194,15.6086331 L82.1388194,15.6086331 L82.1388194,7.79280576 C82.1388194,7.73908873 82.1308226,7.68153477 82.1148292,7.62014388 C82.2427766,7.51270983 82.4346978,7.40911271 82.6905926,7.30935252 C82.9464875,7.20959233 83.1863889,7.15971223 83.4102969,7.15971223 C83.8741063,7.15971223 84.2419552,7.26330935 84.5138434,7.4705036 C84.7857317,7.67769784 84.9216758,8.01151079 84.9216758,8.47194245 L84.9216758,8.47194245 L84.9216758,13.9741007 C84.9216758,14.3577938 84.9736545,14.6685851 85.0776118,14.9064748 C85.1815691,15.1443645 85.3295083,15.3323741 85.5214294,15.4705036 C85.7133505,15.6086331 85.9492536,15.7007194 86.2291386,15.7467626 C86.5090236,15.7928058 86.8248938,15.8158273 87.1767492,15.8158273 Z" id="Getform"></path>
            </g>
        </g>
    </g>
</svg>