<svg xmlns="http://www.w3.org/2000/svg" width="88" height="101" viewBox="0 0 88 101">
    <path fill="#FFF" fill-rule="nonzero" d="M21.358 77.01a3.174 3.174 0 0 0-5.71-.468 2.464 2.464 0 0 0-2.45.903 2.469 2.469 0 0 0 1.948 3.98h6.63a2.23 2.23 0 0 0 2.226-2.227 2.258 2.258 0 0 0-2.644-2.187zm.418 3.628h-6.63a1.68 1.68 0 1 1 .567-3.26l.346.127.15-.337a2.387 2.387 0 0 1 4.504.419l.105.444.423-.169a1.46 1.46 0 0 1 1.975 1.336 1.442 1.442 0 0 1-1.44 1.44zm21.61-41.113h.787v1.002h-.786v-1.002zm4.005 0h.787v1.002h-.787v-1.002zm4.004 0h.786v1.002h-.786v-1.002zm-16.016 0h.786v1.002h-.786v-1.002zm4.005 0h.786v1.002h-.786v-1.002zm4.003-3.563h.786v1.003h-.786v-1.003zm4.004 0h.787v1.003h-.787v-1.003zm-8.007 0h.786v1.003h-.786v-1.003zm4.259 16.589a13.195 13.195 0 0 0-12.19 8.153 13.214 13.214 0 0 0 2.86 14.392 13.187 13.187 0 0 0 14.38 2.861 13.206 13.206 0 0 0 8.145-12.201c-.009-7.29-5.912-13.197-13.195-13.205zm.393.806a12.343 12.343 0 0 1 8.087 3.358l-1.642 1.642a10.03 10.03 0 0 0-6.445-2.676v-2.324zm-.786 0v2.324a10.03 10.03 0 0 0-6.446 2.675l-1.641-1.641a12.343 12.343 0 0 1 8.087-3.358zm-8.643 3.914l1.64 1.641a10.045 10.045 0 0 0-2.673 6.45h-2.32a12.36 12.36 0 0 1 3.353-8.09zm-3.353 8.878h2.32a10.052 10.052 0 0 0 2.674 6.453l-1.64 1.641a12.365 12.365 0 0 1-3.354-8.094zM43.25 78.156a12.342 12.342 0 0 1-8.086-3.357l1.64-1.641a10.028 10.028 0 0 0 6.446 2.676v2.322zm.392-3.089c-5.137 0-9.302-4.167-9.303-9.308 0-5.142 4.163-9.31 9.3-9.311 5.137-.001 9.303 4.166 9.304 9.308-.005 5.139-4.166 9.304-9.301 9.311zm.394 3.09v-2.323a10.029 10.029 0 0 0 6.444-2.676l1.64 1.642a12.341 12.341 0 0 1-8.084 3.356zm8.64-3.913l-1.64-1.642a10.052 10.052 0 0 0 2.673-6.453h2.323a12.365 12.365 0 0 1-3.355 8.095zm1.033-8.882a10.046 10.046 0 0 0-2.672-6.449l1.641-1.642a12.36 12.36 0 0 1 3.354 8.091h-2.323zm-9.673 0h4.302v.787H43.25v-6.952h.786v6.165zm43.44-24.932a4.074 4.074 0 0 0-1.589-3.224c-1-.77-2.3-1.032-3.52-.71a5.328 5.328 0 0 0-4.706-2.844c-.093 0-.182.017-.274.022a41.805 41.805 0 0 0-30.806-17.027 43.44 43.44 0 0 1-2.4-11.3V3.364h1.383v-.787h-1.383V0h-.786v2.577h-1.383v.787h1.383v1.44h-.013a41.458 41.458 0 0 1-2.407 11.826 41.424 41.424 0 0 0-24.488 9.914c-.458-.2-.915-.375-1.36-.528-.73-.247-1.484-.42-2.249-.516l-.003-.004-.128-.015c-.013-.002-.026-.001-.04-.002a11.586 11.586 0 0 0-2.653 0c-.013.001-.025 0-.037.002l-.128.015-.004.004c-.765.096-1.518.269-2.248.516-.586.201-1.162.433-1.724.695l-.018-.018-.046.047C2.974 28.095.206 30.465.206 34.58c0 3.937 2.356 7.77 3.93 9.898-6.16 17.383-.252 36.753 14.558 47.729 14.81 10.975 35.045 10.98 49.86.013C83.37 81.252 89.289 61.884 83.138 44.499h.274a4.071 4.071 0 0 0 4.064-4.07zm-43.7-31.454c1.17 6.925 4.618 14.896 5.6 17.08H44.17v-5.248h-.787v5.248h-5.208c.983-2.184 4.43-10.155 5.601-17.08zm12.057 75.09v-2.968h-.787v2.968H51.9v-2.968h-.786v2.968h-3.146v-2.968h-.786v2.968h-3.146v-2.968h-.786v2.968h-3.147v-2.968h-.786v2.968h-3.146v-2.968h-.786v2.968h-3.147v-2.968h-.787v2.968H28.9v.006h-.595V50.408H58.98v33.664h-.594v-.006h-2.553zm1.766.793v3.18H29.686v-3.18h27.913zM55.53 44.183v5.438h-3.354V46.79h-.786v2.831h-3.217V46.79h-.786v2.831h-3.218V46.79h-.787v2.831h-3.216V46.79h-.786v2.831h-3.22V46.79h-.786v2.831H32.03v-5.874h23.5v.436zM32.222 42.96l3.82-9.432h15.476l3.822 9.432H32.222zM51.39 32.741h-3.217V30.19h-.786v2.552h-3.218V30.19h-.787v2.552h-3.216V30.19h-.786v2.552h-3.22V26.85h15.23v5.891zm-36.518-5.98c.533.183 1.057.393 1.57.628a10.672 10.672 0 0 1 2.566 6.87c0 4.444-4.441 11.74-5.088 12.778-.36.034-.724.05-1.089.07a48.518 48.518 0 0 0 2.18-13.202c0-4.216-.785-6.406-1.413-7.486.431.087.857.201 1.274.341zM8.718 53.19l.763-1.837h3.695l.762 1.837h-5.22zm5.283.787v3.056a.886.886 0 0 1-.884.886h-3.58a.883.883 0 0 1-.882-.883v-3.06h5.346zm-.946-3.41h-3.34l-.01-.004a6.943 6.943 0 0 0-.363-.586l-.133-.19a24.54 24.54 0 0 0-.628-.86 75.835 75.835 0 0 0-.607-.792l-.172-.221-.167-.215c.837.117 1.696.18 2.56.217l.516.025c.193.007.387.012.583.014h.047l.04.002c.218 0 .43-.009.643-.018l.542-.019.002-.003c.83-.036 1.655-.095 2.46-.205l-1.973 2.854zm1.865-3.66c1.243-2.073 4.874-8.484 4.874-12.647a11.337 11.337 0 0 0-1.718-5.978 7.297 7.297 0 0 1 3.694 6.298c0 3.718-2.205 7.636-4.094 9.862a96.92 96.92 0 0 0-1.934 2.357c-.269.046-.548.07-.822.107zm-4.675-20.66h.003c.754-.08 1.514-.08 2.268 0h.002c.43.47 1.708 2.317 1.708 7.658a47.946 47.946 0 0 1-2.23 13.236c-.108.002-.215.012-.323.013-.21.004-.42.005-.632.001-.091-.001-.182-.01-.274-.012a48.243 48.243 0 0 1-2.23-13.238c0-5.34 1.279-7.189 1.708-7.658zM6.322 27.39a16.847 16.847 0 0 1 1.57-.629c.417-.14.842-.253 1.273-.34-.628 1.08-1.413 3.269-1.413 7.485.117 4.48.85 8.922 2.18 13.2-.363-.019-.727-.03-1.087-.064-.638-1.025-5.09-8.338-5.09-12.781a10.71 10.71 0 0 1 2.567-6.87zM.992 34.58a7.297 7.297 0 0 1 3.694-6.298A11.337 11.337 0 0 0 2.97 34.26c0 4.16 3.633 10.575 4.874 12.647-.31-.042-.625-.071-.928-.124l-.04-.052c-.614-.778-1.26-1.597-1.866-2.392C3.509 42.373.992 38.49.992 34.58zM27.52 96.321C7.742 87.88-2.2 65.614 4.712 45.238c.347.45.696.896 1.047 1.341l-.007-.001.484.614.021.026c.477.605.958 1.217 1.387 1.775l.036.046.135.178c.454.597.843 1.132 1.071 1.503l-1.015 2.47H7.87v3.846a1.67 1.67 0 0 0 1.668 1.67h3.58a1.674 1.674 0 0 0 1.67-1.673V53.19h-.002l-.974-2.369.011-.024c.02-.036.037-.068.062-.11.064-.11.145-.238.234-.375a17.834 17.834 0 0 1 .358-.526c.075-.108.149-.214.236-.335.054-.076.117-.16.175-.24.203-.277.43-.581.692-.922l.107-.14c.162-.21.337-.435.522-.67.099-.125.195-.249.299-.378l.108-.137a94.74 94.74 0 0 1 1.66-2.013c1.976-2.328 4.282-6.44 4.282-10.371 0-3.944-2.543-6.284-5.285-7.665a40.633 40.633 0 0 1 23.432-9.476 99.954 99.954 0 0 1-3.398 8.624H36.16v-4.051h-.786v11.073l-3.343 8.251v-4.334h-.786V49.62h-3.726v35.238h1.38v3.18h-1.38v8.282zm31.46.32c-1.03.416-2.077.8-3.146 1.134V92.5h-.787V98c-1.034.3-2.08.57-3.146.789v-6.289h-.786v6.43a40.845 40.845 0 0 1-3.146.464v-6.894h-.786v6.96a41.41 41.41 0 0 1-3.146.153v-7.113h-.786v7.113a41.337 41.337 0 0 1-3.147-.153V92.5h-.786v6.894a40.868 40.868 0 0 1-3.146-.465V92.5h-.786v6.289a40.67 40.67 0 0 1-3.147-.79V92.5h-.787v5.276a40.698 40.698 0 0 1-3.146-1.135v-7.814H58.98v7.814zm25.775-38.167c-.017 16.482-9.846 31.369-24.988 37.847V88.04h-1.38v-3.18h1.38V69.986c.371.144.765.219 1.163.222h9.313a2.97 2.97 0 0 0 2.306-4.837 2.965 2.965 0 0 0-2.999-1.019 4.298 4.298 0 0 0-7.835-.661 3.292 3.292 0 0 0-1.948.13v-14.2h-3.45v-12.62h-.786v4.335l-3.354-8.278V22.012h-.786v4.05h-1.145a99.953 99.953 0 0 1-3.391-8.6 41.011 41.011 0 0 1 29.644 16.333 5.278 5.278 0 0 0-3.899 3.54 3.638 3.638 0 0 0-3.73 1.18 3.646 3.646 0 0 0-.509 3.881 3.64 3.64 0 0 0 3.3 2.103h10.637a40.93 40.93 0 0 1 2.457 13.975zM59.766 69.13v-4.456l.083-.047a2.523 2.523 0 0 1 1.935-.094l.344.125.15-.335a3.51 3.51 0 0 1 6.624.619l.106.446.424-.173a2.18 2.18 0 1 1 .81 4.205h-9.313c-.336.002-.669-.066-.979-.197l-.184-.093zM71.66 43.712a2.859 2.859 0 0 1 0-5.713c.363 0 .723.07 1.06.206l.425.171.105-.446a4.496 4.496 0 0 1 3.616-3.404 5.047 5.047 0 0 1 1.767.024c.014.004-.001-.002.014.004a4.605 4.605 0 0 1 3.155 2.579l.15.333.342-.124a3.278 3.278 0 0 1 3.504.838 3.285 3.285 0 0 1-2.387 5.532H71.66z"/>
</svg>
