<svg xmlns="http://www.w3.org/2000/svg" xmlns:xlink="http://www.w3.org/1999/xlink" width="20" height="25" viewBox="0 0 20 25">
    <defs>
        <path id="b" d="M18.947 24H1.053A1.048 1.048 0 0 1 0 22.957V1.043C0 .467.471 0 1.053 0h12.631L20 6.26v16.697c0 .576-.471 1.043-1.053 1.043z"/>
        <filter id="a" width="105%" height="108.3%" x="-2.5%" y="-2.1%" filterUnits="objectBoundingBox">
            <feOffset dy="1" in="SourceAlpha" result="shadowOffsetOuter1"/>
            <feColorMatrix in="shadowOffsetOuter1" values="0 0 0 0 0.8712 0 0 0 0 0.874133333 0 0 0 0 0.88 0 0 0 1 0"/>
        </filter>
    </defs>
    <g fill="none" fill-rule="evenodd">
        <g>
            <use fill="#000" filter="url(#a)" xlink:href="#b"/>
            <use fill="#F2F3F5" xlink:href="#b"/>
        </g>
        <g fill="#FA4D4D">
            <path d="M14.174 13.522H9.478V8.826a.26.26 0 0 0-.26-.26A5.223 5.223 0 0 0 4 13.782 5.223 5.223 0 0 0 9.217 19a5.223 5.223 0 0 0 5.218-5.217.26.26 0 0 0-.261-.261z"/>
            <path d="M10.783 7a.26.26 0 0 0-.261.26v4.957c0 .144.116.261.26.261h4.957a.26.26 0 0 0 .261-.26A5.223 5.223 0 0 0 10.783 7z"/>
        </g>
    </g>
</svg>
