<svg xmlns="http://www.w3.org/2000/svg" xmlns:xlink="http://www.w3.org/1999/xlink" width="20" height="25" viewBox="0 0 20 25">
    <defs>
        <path id="b" d="M18.947 24H1.053A1.048 1.048 0 0 1 0 22.957V1.043C0 .467.471 0 1.053 0h12.631L20 6.26v16.697c0 .576-.471 1.043-1.053 1.043z"/>
        <filter id="a" width="105%" height="108.3%" x="-2.5%" y="-2.1%" filterUnits="objectBoundingBox">
            <feOffset dy="1" in="SourceAlpha" result="shadowOffsetOuter1"/>
            <feColorMatrix in="shadowOffsetOuter1" values="0 0 0 0 0.8712 0 0 0 0 0.874133333 0 0 0 0 0.88 0 0 0 1 0"/>
        </filter>
    </defs>
    <g fill="none" fill-rule="evenodd">
        <g>
            <use fill="#000" filter="url(#a)" xlink:href="#b"/>
            <use fill="#F2F3F5" xlink:href="#b"/>
        </g>
        <path stroke="#FA4D77" stroke-linejoin="round" stroke-width="1.2" d="M9.78 8.13c.258.117.205.268.125.986-.081.74-.353 2.09-.877 3.42-.525 1.327-1.303 2.631-1.981 3.596-.678.966-1.258 1.594-1.7 1.956-.444.363-.751.46-.952.491-.198.032-.289 0-.342-.097-.054-.097-.073-.256-.027-.45.045-.193.153-.419.46-.708.309-.29.815-.644 1.52-.974.706-.33 1.61-.636 2.352-.845.743-.209 1.32-.322 1.827-.41.508-.09.941-.153 1.366-.186a7.86 7.86 0 0 1 2.398.178c.344.08.634.176.887.33.253.152.47.362.578.596.11.233.11.491.02.676-.091.185-.273.297-.48.363-.208.063-.443.079-.724 0-.28-.082-.607-.259-.95-.492a8.9 8.9 0 0 1-1.175-.974c-.471-.45-1.05-1.062-1.539-1.657a11.575 11.575 0 0 1-1.159-1.666 6.088 6.088 0 0 1-.533-1.296A6.629 6.629 0 0 1 8.63 9.8a3.968 3.968 0 0 1 .017-.942c.036-.257.092-.451.182-.58a.64.64 0 0 1 .308-.225c.09-.032.145-.032.198-.04.054-.008.108-.024.19 0 .08.023.184.085.289.147"/>
    </g>
</svg>
