<?xml version="1.0" encoding="UTF-8"?>
<svg width="16px" height="16px" viewBox="0 0 16 16" version="1.1" xmlns="http://www.w3.org/2000/svg" xmlns:xlink="http://www.w3.org/1999/xlink">
    <!-- Generator: Sketch 52.2 (67145) - http://www.bohemiancoding.com/sketch -->
    <title>send</title>
    <desc>Created with Sketch.</desc>
    <g id="form-detail" stroke="none" stroke-width="1" fill="none" fill-rule="evenodd">
        <g id="form-detail-invite" transform="translate(-213.000000, -299.000000)" fill="#9397A5">
            <g id="send" transform="translate(213.000000, 299.000000)">
                <path d="M0.290909091,7.12727273 L2.16509091,8.54690909 L8.71054545,5.63781818 L3.63636364,9.63709091 L3.63636364,14.5454545 C3.63667808,14.8508453 3.8277489,15.1235099 4.1146915,15.2280448 C4.40163409,15.3325797 4.72331921,15.2467151 4.92,15.0130909 L7.19636364,12.3083636 L11.9272727,15.8545455 C12.1267153,16.0045348 12.3891314,16.0417949 12.6224429,15.9532516 C12.8557544,15.8647084 13.0273771,15.6627277 13.0770909,15.4181818 L15.9861818,0.872727273 C16.0386613,0.61096146 15.9435003,0.341484844 15.7382803,0.170721212 C15.5330604,-4.24210189e-05 15.250776,-0.0446384032 15.0029091,0.0545454545 L0.457454545,5.87272727 C0.214533938,5.9707334 0.0430852902,6.19180177 0.00861346192,6.45146948 C-0.0258583663,6.71113718 0.0819731262,6.969281 0.290909091,7.12727273 Z" id="Path"></path>
            </g>
        </g>
    </g>
</svg>